<svg width="77" height="30" viewBox="0 0 77 30" fill="none" xmlns="http://www.w3.org/2000/svg">
<path d="M32.94 14.26V17.04H25.62V14.26H32.94Z" fill="#39A900"/>
<path d="M3.972 0.96C4.708 0.96 5.356 1.076 5.916 1.308C6.484 1.532 6.976 1.864 7.392 2.304L6.396 3.636C6.052 3.276 5.68 3.008 5.28 2.832C4.888 2.648 4.44 2.556 3.936 2.556C3.64 2.556 3.4 2.588 3.216 2.652C3.032 2.716 2.9 2.804 2.82 2.916C2.74 3.028 2.7 3.156 2.7 3.3C2.7 3.468 2.776 3.612 2.928 3.732C3.088 3.844 3.344 3.94 3.696 4.02L5.028 4.32C5.82 4.504 6.4 4.772 6.768 5.124C7.136 5.476 7.32 5.944 7.32 6.528C7.32 7.088 7.176 7.564 6.888 7.956C6.6 8.34 6.204 8.632 5.7 8.832C5.196 9.024 4.62 9.12 3.972 9.12C3.444 9.12 2.94 9.064 2.46 8.952C1.98 8.832 1.548 8.664 1.164 8.448C0.78 8.232 0.456 7.984 0.192 7.704L1.188 6.324C1.388 6.556 1.632 6.764 1.92 6.948C2.216 7.124 2.536 7.264 2.88 7.368C3.232 7.472 3.588 7.524 3.948 7.524C4.228 7.524 4.46 7.496 4.644 7.44C4.836 7.384 4.976 7.3 5.064 7.188C5.152 7.076 5.196 6.944 5.196 6.792C5.196 6.624 5.136 6.484 5.016 6.372C4.896 6.252 4.668 6.152 4.332 6.072L2.868 5.748C2.42 5.644 2.02 5.508 1.668 5.34C1.324 5.164 1.052 4.932 0.852 4.644C0.652 4.348 0.552 3.98 0.552 3.54C0.552 3.044 0.688 2.604 0.96 2.22C1.232 1.828 1.624 1.52 2.136 1.296C2.648 1.072 3.26 0.96 3.972 0.96ZM11.3944 9.12C10.7304 9.12 10.1544 8.996 9.66638 8.748C9.18638 8.5 8.81438 8.144 8.55038 7.68C8.28638 7.216 8.15438 6.656 8.15438 6C8.15438 5.344 8.28638 4.784 8.55038 4.32C8.81438 3.856 9.18238 3.5 9.65438 3.252C10.1344 3.004 10.6824 2.88 11.2984 2.88C11.9304 2.88 12.4664 3.004 12.9064 3.252C13.3544 3.492 13.6944 3.828 13.9264 4.26C14.1584 4.684 14.2744 5.172 14.2744 5.724C14.2744 5.868 14.2704 6.012 14.2624 6.156C14.2544 6.3 14.2424 6.42 14.2264 6.516H9.47438V5.424H13.3264L12.3544 5.796C12.3544 5.316 12.2664 4.948 12.0904 4.692C11.9224 4.436 11.6584 4.308 11.2984 4.308C11.0424 4.308 10.8224 4.368 10.6384 4.488C10.4624 4.608 10.3264 4.796 10.2304 5.052C10.1424 5.308 10.0984 5.636 10.0984 6.036C10.0984 6.428 10.1504 6.748 10.2544 6.996C10.3584 7.236 10.5064 7.412 10.6984 7.524C10.8904 7.628 11.1224 7.68 11.3944 7.68C11.6984 7.68 11.9384 7.62 12.1144 7.5C12.2984 7.38 12.4344 7.212 12.5224 6.996L14.1544 7.536C14.0424 7.88 13.8464 8.172 13.5664 8.412C13.2944 8.644 12.9664 8.82 12.5824 8.94C12.2064 9.06 11.8104 9.12 11.3944 9.12ZM21.2236 1.392L21.3916 2.76C21.3436 2.744 21.2956 2.736 21.2476 2.736C21.1996 2.728 21.1516 2.724 21.1036 2.724C20.7516 2.724 20.4876 2.812 20.3116 2.988C20.1436 3.156 20.0596 3.368 20.0596 3.624L19.3396 3.36C19.3396 3.032 19.3996 2.716 19.5196 2.412C19.6396 2.108 19.8236 1.86 20.0716 1.668C20.3276 1.476 20.6476 1.38 21.0316 1.38C21.0556 1.38 21.0836 1.38 21.1156 1.38C21.1556 1.38 21.1916 1.384 21.2236 1.392ZM19.1596 7.668C19.8556 7.668 20.3876 7.816 20.7556 8.112C21.1316 8.4 21.3196 8.816 21.3196 9.36C21.3196 9.856 21.1836 10.268 20.9116 10.596C20.6396 10.924 20.2556 11.168 19.7596 11.328C19.2716 11.496 18.6916 11.58 18.0196 11.58C16.9316 11.58 16.1476 11.444 15.6676 11.172C15.1876 10.9 14.9476 10.532 14.9476 10.068C14.9476 9.732 15.0836 9.46 15.3556 9.252C15.6276 9.044 16.0796 8.932 16.7116 8.916L16.6636 9.108C16.1756 9.044 15.8116 8.9 15.5716 8.676C15.3316 8.452 15.2116 8.148 15.2116 7.764C15.2116 7.38 15.3636 7.068 15.6676 6.828C15.9716 6.588 16.3756 6.456 16.8796 6.432L17.6236 6.78H17.4316C17.1196 6.796 16.8996 6.848 16.7716 6.936C16.6436 7.024 16.5796 7.132 16.5796 7.26C16.5796 7.396 16.6356 7.5 16.7476 7.572C16.8596 7.636 17.0276 7.668 17.2516 7.668H19.1596ZM18.0316 10.26C18.4156 10.26 18.7316 10.232 18.9796 10.176C19.2356 10.128 19.4276 10.056 19.5556 9.96C19.6836 9.872 19.7476 9.768 19.7476 9.648C19.7476 9.528 19.7036 9.432 19.6156 9.36C19.5276 9.296 19.3676 9.264 19.1356 9.264H16.9876C16.8356 9.264 16.7116 9.304 16.6156 9.384C16.5276 9.464 16.4836 9.564 16.4836 9.684C16.4836 9.868 16.6196 10.008 16.8916 10.104C17.1636 10.208 17.5436 10.26 18.0316 10.26ZM18.1036 2.88C18.7116 2.88 19.2316 2.96 19.6636 3.12C20.0956 3.28 20.4236 3.512 20.6476 3.816C20.8796 4.112 20.9956 4.48 20.9956 4.92C20.9956 5.352 20.8796 5.72 20.6476 6.024C20.4236 6.328 20.0956 6.56 19.6636 6.72C19.2316 6.872 18.7116 6.948 18.1036 6.948C17.1516 6.948 16.4276 6.772 15.9316 6.42C15.4436 6.068 15.1996 5.568 15.1996 4.92C15.1996 4.48 15.3116 4.112 15.5356 3.816C15.7676 3.512 16.0996 3.28 16.5316 3.12C16.9636 2.96 17.4876 2.88 18.1036 2.88ZM18.1036 4.044C17.8396 4.044 17.6236 4.12 17.4556 4.272C17.2956 4.424 17.2156 4.64 17.2156 4.92C17.2156 5.192 17.2956 5.404 17.4556 5.556C17.6236 5.708 17.8396 5.784 18.1036 5.784C18.3596 5.784 18.5716 5.708 18.7396 5.556C18.9076 5.404 18.9916 5.192 18.9916 4.92C18.9916 4.64 18.9076 4.424 18.7396 4.272C18.5716 4.12 18.3596 4.044 18.1036 4.044ZM2.76 19.12C2.352 19.12 1.992 19.052 1.68 18.916C1.376 18.772 1.136 18.544 0.96 18.232C0.784 17.92 0.696 17.512 0.696 17.008V13H2.736V16.528C2.736 16.912 2.812 17.18 2.964 17.332C3.116 17.484 3.332 17.56 3.612 17.56C3.756 17.56 3.892 17.536 4.02 17.488C4.148 17.432 4.26 17.352 4.356 17.248C4.452 17.136 4.524 16.996 4.572 16.828C4.628 16.652 4.656 16.448 4.656 16.216V13H6.696V19H4.872L4.812 17.872C4.62 18.296 4.352 18.612 4.008 18.82C3.664 19.02 3.248 19.12 2.76 19.12ZM9.18169 12.304C8.76569 12.304 8.46169 12.228 8.26969 12.076C8.08569 11.916 7.99369 11.668 7.99369 11.332C7.99369 10.988 8.08569 10.74 8.26969 10.588C8.46169 10.428 8.76569 10.348 9.18169 10.348C9.58969 10.348 9.88969 10.428 10.0817 10.588C10.2737 10.74 10.3697 10.988 10.3697 11.332C10.3697 11.668 10.2737 11.916 10.0817 12.076C9.88969 12.228 9.58969 12.304 9.18169 12.304ZM10.2017 13V19H8.16169V13H10.2017ZM11.6539 19V13H13.4779L13.5379 14.164C13.7299 13.74 13.9979 13.42 14.3419 13.204C14.6939 12.988 15.0979 12.88 15.5539 12.88C16.0019 12.88 16.3899 12.98 16.7179 13.18C17.0459 13.38 17.2899 13.676 17.4499 14.068C17.5779 13.804 17.7419 13.584 17.9419 13.408C18.1499 13.232 18.3859 13.1 18.6499 13.012C18.9139 12.924 19.1859 12.88 19.4659 12.88C19.8659 12.88 20.2179 12.96 20.5219 13.12C20.8259 13.272 21.0659 13.508 21.2419 13.828C21.4259 14.14 21.5179 14.532 21.5179 15.004V19H19.4779V15.472C19.4779 15.088 19.4019 14.82 19.2499 14.668C19.1059 14.516 18.9099 14.44 18.6619 14.44C18.4619 14.44 18.2779 14.492 18.1099 14.596C17.9499 14.692 17.8259 14.84 17.7379 15.04C17.6499 15.24 17.6059 15.492 17.6059 15.796V19H15.5659V15.472C15.5659 15.088 15.4899 14.82 15.3379 14.668C15.1859 14.516 14.9899 14.44 14.7499 14.44C14.5659 14.44 14.3899 14.488 14.2219 14.584C14.0619 14.68 13.9339 14.832 13.8379 15.04C13.7419 15.24 13.6939 15.504 13.6939 15.832V19H11.6539ZM1.752 22.304C1.336 22.304 1.032 22.228 0.84 22.076C0.656 21.916 0.564 21.668 0.564 21.332C0.564 20.988 0.656 20.74 0.84 20.588C1.032 20.428 1.336 20.348 1.752 20.348C2.16 20.348 2.46 20.428 2.652 20.588C2.844 20.74 2.94 20.988 2.94 21.332C2.94 21.668 2.844 21.916 2.652 22.076C2.46 22.228 2.16 22.304 1.752 22.304ZM2.772 23V29H0.732V23H2.772ZM7.15219 29.12C6.48819 29.12 5.91219 28.996 5.42419 28.748C4.94419 28.5 4.57219 28.144 4.30819 27.68C4.04419 27.216 3.91219 26.656 3.91219 26C3.91219 25.344 4.04419 24.784 4.30819 24.32C4.57219 23.856 4.94019 23.5 5.41219 23.252C5.89219 23.004 6.44019 22.88 7.05619 22.88C7.68819 22.88 8.22419 23.004 8.66419 23.252C9.11219 23.492 9.45219 23.828 9.68419 24.26C9.91619 24.684 10.0322 25.172 10.0322 25.724C10.0322 25.868 10.0282 26.012 10.0202 26.156C10.0122 26.3 10.0002 26.42 9.98419 26.516H5.23219V25.424H9.08419L8.11219 25.796C8.11219 25.316 8.02419 24.948 7.84819 24.692C7.68019 24.436 7.41619 24.308 7.05619 24.308C6.80019 24.308 6.58019 24.368 6.39619 24.488C6.22019 24.608 6.08419 24.796 5.98819 25.052C5.90019 25.308 5.85619 25.636 5.85619 26.036C5.85619 26.428 5.90819 26.748 6.01219 26.996C6.11619 27.236 6.26419 27.412 6.45619 27.524C6.64819 27.628 6.88019 27.68 7.15219 27.68C7.45619 27.68 7.69619 27.62 7.87219 27.5C8.05619 27.38 8.19219 27.212 8.28019 26.996L9.91219 27.536C9.80019 27.88 9.60419 28.172 9.32419 28.412C9.05219 28.644 8.72419 28.82 8.34019 28.94C7.96419 29.06 7.56819 29.12 7.15219 29.12ZM11.1734 29V23H12.9974L13.1054 25.064L12.8774 24.836C12.9574 24.404 13.0974 24.044 13.2974 23.756C13.5054 23.468 13.7614 23.252 14.0654 23.108C14.3774 22.956 14.7254 22.88 15.1094 22.88C15.5254 22.88 15.8854 22.96 16.1894 23.12C16.5014 23.28 16.7454 23.516 16.9214 23.828C17.0974 24.14 17.1854 24.532 17.1854 25.004V29H15.1454V25.544C15.1454 25.128 15.0654 24.84 14.9054 24.68C14.7454 24.52 14.5414 24.44 14.2934 24.44C14.1014 24.44 13.9214 24.488 13.7534 24.584C13.5854 24.672 13.4534 24.816 13.3574 25.016C13.2614 25.216 13.2134 25.484 13.2134 25.82V29H11.1734ZM21.0877 21.092V26.864C21.0877 27.152 21.1557 27.36 21.2917 27.488C21.4357 27.608 21.6317 27.668 21.8797 27.668C22.0717 27.668 22.2357 27.648 22.3717 27.608C22.5157 27.56 22.6437 27.492 22.7557 27.404L22.9717 28.664C22.7717 28.808 22.5197 28.92 22.2157 29C21.9117 29.08 21.5997 29.12 21.2797 29.12C20.8237 29.12 20.4277 29.056 20.0917 28.928C19.7637 28.8 19.5077 28.596 19.3237 28.316C19.1477 28.036 19.0557 27.664 19.0477 27.2V21.656L21.0877 21.092ZM22.8757 23V24.452H18.0157V23H22.8757ZM26.6739 22.88C27.3059 22.88 27.8579 23.004 28.3299 23.252C28.8099 23.492 29.1819 23.848 29.4459 24.32C29.7179 24.784 29.8539 25.344 29.8539 26C29.8539 26.656 29.7179 27.22 29.4459 27.692C29.1819 28.156 28.8099 28.512 28.3299 28.76C27.8579 29 27.3059 29.12 26.6739 29.12C26.0579 29.12 25.5099 29 25.0299 28.76C24.5499 28.512 24.1739 28.156 23.9019 27.692C23.6379 27.22 23.5059 26.656 23.5059 26C23.5059 25.344 23.6379 24.784 23.9019 24.32C24.1739 23.848 24.5499 23.492 25.0299 23.252C25.5099 23.004 26.0579 22.88 26.6739 22.88ZM26.6739 24.332C26.4419 24.332 26.2419 24.388 26.0739 24.5C25.9059 24.612 25.7779 24.792 25.6899 25.04C25.6019 25.288 25.5579 25.608 25.5579 26C25.5579 26.392 25.6019 26.712 25.6899 26.96C25.7779 27.2 25.9059 27.38 26.0739 27.5C26.2419 27.612 26.4419 27.668 26.6739 27.668C26.9139 27.668 27.1179 27.612 27.2859 27.5C27.4539 27.38 27.5819 27.2 27.6699 26.96C27.7579 26.712 27.8019 26.392 27.8019 26C27.8019 25.608 27.7579 25.288 27.6699 25.04C27.5819 24.792 27.4539 24.612 27.2859 24.5C27.1179 24.388 26.9139 24.332 26.6739 24.332Z" fill="#39A900"/>
<path d="M37.336 27V5.88H53.784V10.136H42.84V14.424H51.544V18.424H42.84V22.744H54.2V27H37.336ZM67.2195 5.88C68.9475 5.88 70.4195 6.15733 71.6355 6.712C72.8515 7.26667 73.7795 8.06667 74.4195 9.112C75.0595 10.1573 75.3795 11.4267 75.3795 12.92C75.3795 14.4133 75.0595 15.6827 74.4195 16.728C73.7795 17.7733 72.8515 18.5733 71.6355 19.128C70.4195 19.6827 68.9475 19.96 67.2195 19.96H63.0275V27H57.5235V5.88H67.2195ZM66.3555 15.832C67.5075 15.832 68.3715 15.5973 68.9475 15.128C69.5448 14.6373 69.8435 13.9013 69.8435 12.92C69.8435 11.9387 69.5448 11.2133 68.9475 10.744C68.3715 10.2533 67.5075 10.008 66.3555 10.008H63.0275V15.832H66.3555Z" fill="#39A900"/>
</svg>
